# xmcd
#
# Track frame offsets:
#   150
#   6802
#   10505
#   13876
#   15911
#   20401
#   24406
#   27554
#   30460
#   35381
#   39114
#   41684
#   49335
#   51689
#   58575
#   63615
#   66889
#   70354
#   75683
#   80136
#   89948
#   92494
#   94637
#   99672
#   102276
#   104588
#   108840
#   112550
#   116742
#   121141
#   125791
#   129707
#   132563
#   136115
#   140478
#   143360
#   147681
#   155564
#   158778
#   163278
#   168721
#   172120
#   176074
#   182149
#   187767
#   191375
#   195160
#   197971
#   202927
#   207456
#   211452
#   214979
#   221010
#   226848
#
# Disc length: 3140 seconds
#
# Revision: 0
# Processed by: cddbd v1.5.2PL0 Copyright (c) Steve Scherf et al.
# Submitted via: uFREEDB ActiveX Control 1.5
#
DISCID=140c4236
DTITLE=foca - french foca
DYEAR=1900
DGENRE=Classical
TTITLE0=foca01
TTITLE1=foca02
TTITLE2=foca03
TTITLE3=foca04
TTITLE4=foca05
TTITLE5=foca06
TTITLE6=foca07
TTITLE7=foca08
TTITLE8=foca09
TTITLE9=foca10
TTITLE10=foca11
TTITLE11=foca12
TTITLE12=foca13
TTITLE13=foca14
TTITLE14=foca15
TTITLE15=foca16
TTITLE16=foca17
TTITLE17=foca18
TTITLE18=foca19
TTITLE19=foca20
TTITLE20=foca21
TTITLE21=foca22
TTITLE22=foca23
TTITLE23=foca24
TTITLE24=foca25
TTITLE25=foca26
TTITLE26=foca27
TTITLE27=foca28
TTITLE28=foca29
TTITLE29=foca30
TTITLE30=foca31
TTITLE31=foca32
TTITLE32=foca33
TTITLE33=foca34
TTITLE34=foca35
TTITLE35=foca36
TTITLE36=foca37
TTITLE37=foca38
TTITLE38=foca39
TTITLE39=foca40
TTITLE40=foca41
TTITLE41=foca42
TTITLE42=foca43
TTITLE43=foca44
TTITLE44=foca45
TTITLE45=foca46
TTITLE46=foca47
TTITLE47=foca48
TTITLE48=foca49
TTITLE49=foca50
TTITLE50=foca51
TTITLE51=foca52
TTITLE52=foca53
TTITLE53=foca54
EXTD=
EXTT0=
EXTT1=
EXTT2=
EXTT3=
EXTT4=
EXTT5=
EXTT6=
EXTT7=
EXTT8=
EXTT9=
EXTT10=
EXTT11=
EXTT12=
EXTT13=
EXTT14=
EXTT15=
EXTT16=
EXTT17=
EXTT18=
EXTT19=
EXTT20=
EXTT21=
EXTT22=
EXTT23=
EXTT24=
EXTT25=
EXTT26=
EXTT27=
EXTT28=
EXTT29=
EXTT30=
EXTT31=
EXTT32=
EXTT33=
EXTT34=
EXTT35=
EXTT36=
EXTT37=
EXTT38=
EXTT39=
EXTT40=
EXTT41=
EXTT42=
EXTT43=
EXTT44=
EXTT45=
EXTT46=
EXTT47=
EXTT48=
EXTT49=
EXTT50=
EXTT51=
EXTT52=
EXTT53=
PLAYORDER=
